<svg width="47" height="48" viewBox="0 0 47 48" fill="none" xmlns="http://www.w3.org/2000/svg">
<path d="M14.3333 38C11.7667 38 9.69001 40.1 9.69001 42.6667C9.69001 45.2333 11.7667 47.3333 14.3333 47.3333C16.9 47.3333 19 45.2333 19 42.6667C19 40.1 16.9 38 14.3333 38ZM0.333344 0.666656V5.33332H5.00001L13.4 23.0433L10.25 28.76C9.87668 29.4133 9.66668 30.1833 9.66668 31C9.66668 33.5667 11.7667 35.6667 14.3333 35.6667H42.3333V31H15.3133C14.9867 31 14.73 30.7433 14.73 30.4167L14.8 30.1367L16.9 26.3333H34.2833C36.0333 26.3333 37.5733 25.3767 38.3667 23.93L46.72 8.78666C46.9067 8.45999 47 8.06332 47 7.66666C47 6.38332 45.95 5.33332 44.6667 5.33332H10.1567L7.96334 0.666656H0.333344ZM37.6667 38C35.1 38 33.0233 40.1 33.0233 42.6667C33.0233 45.2333 35.1 47.3333 37.6667 47.3333C40.2333 47.3333 42.3333 45.2333 42.3333 42.6667C42.3333 40.1 40.2333 38 37.6667 38Z" fill="black" fill-opacity="0.8"/>
</svg>
