<svg width="178" height="140" viewBox="0 0 178 140" fill="none" xmlns="http://www.w3.org/2000/svg">
<path d="M113.284 71.764C111.837 69.0853 108.567 67.494 105.719 68.3573C105.016 66.262 102.977 64.8713 100.882 64.554C98.7856 64.2366 96.6496 64.8386 94.7183 65.7533C93.9532 64.982 93.0123 64.4294 91.9854 64.1484C90.9585 63.8674 89.8801 63.8674 88.8532 64.1483C87.8263 64.4292 86.8854 64.9817 86.1203 65.7529C85.3552 66.5242 84.7915 67.4884 84.4832 68.5533C84.4152 68.9882 84.2264 69.3924 83.9403 69.7153C83.5917 69.9485 83.1832 70.0641 82.77 70.0466C80.0733 70.266 76.7224 71.9133 74.533 73.6306C72.8509 74.9373 72.308 77.2333 72.1523 79.3146C71.8764 83.44 72.9844 88.9186 75.7123 92.064C78.6804 95.4846 83.2061 97.0946 87.616 97.23C92.026 97.3653 96.3826 96.1706 100.57 94.7333C107.832 92.2273 115.108 88.7833 120.671 83.146C123.002 80.7893 125.232 78.0126 122.255 75.32C121.067 74.2466 119.812 73.2853 118.25 72.9026C117.881 72.814 113.702 72.6366 113.862 73.332C113.739 72.7839 113.544 72.2562 113.284 71.764Z" fill="#725858"/>
<path d="M88.288 97.7106C88.0595 97.7106 87.8326 97.7106 87.6071 97.7106C82.6409 97.5613 78.1865 95.6246 75.3874 92.3953C72.4727 89.0353 71.4403 83.398 71.7117 79.3006C71.8986 76.4773 72.7619 74.4473 74.2749 73.276C76.4154 71.6146 79.8641 69.8366 82.7299 69.5986H82.7967C83.0956 69.6121 83.3919 69.536 83.6511 69.3793C83.8387 69.1548 83.9634 68.8802 84.0115 68.586L84.056 68.4413C84.3787 67.3278 84.9623 66.3168 85.7534 65.5007C86.5444 64.6845 87.5179 64.0891 88.5848 63.7689C89.6517 63.4487 90.7781 63.4139 91.8611 63.6676C92.9442 63.9213 93.9494 64.4554 94.785 65.2213C97.01 64.204 99.0926 63.8213 100.926 64.1106C103.213 64.456 105.149 65.8933 105.968 67.844C107.461 67.5647 108.999 67.773 110.375 68.4407C111.751 69.1085 112.899 70.2034 113.662 71.5773C113.835 71.9086 113.984 72.2534 114.107 72.6086C115.388 72.2213 118.21 72.4546 118.348 72.4873C120.034 72.898 121.356 73.9386 122.531 75.0026C123.554 75.936 124.088 76.9486 124.115 78.0453C124.168 80.0006 122.633 81.83 120.969 83.5193C116.163 88.3866 109.724 92.1013 100.695 95.214C97.0411 96.432 92.7202 97.7106 88.288 97.7106ZM90.3706 64.4233C89.8962 64.4224 89.4236 64.4851 88.9644 64.61C88.0179 64.8817 87.1514 65.3978 86.444 66.111C85.7366 66.8243 85.2109 67.7121 84.9149 68.6933L84.8748 68.8286C84.7891 69.3058 84.5635 69.743 84.2296 70.0793C83.8328 70.3718 83.3573 70.5238 82.8723 70.5133H82.81C80.1089 70.7326 76.8426 72.4266 74.8 74.0086C73.5051 75.012 72.7664 76.8086 72.5973 79.3473C72.3436 83.118 73.3182 88.6106 76.0416 91.7513C78.6804 94.794 82.9035 96.6186 87.6116 96.7633C92.1461 96.894 96.6228 95.5826 100.414 94.276C109.314 91.21 115.642 87.5606 120.346 82.796C121.863 81.256 123.265 79.6133 123.225 78.0173C123.198 77.1866 122.78 76.4166 121.948 75.6606C120.858 74.676 119.643 73.71 118.139 73.3273C117.645 73.22 114.899 73.1826 114.28 73.444C114.252 73.5421 114.193 73.6274 114.113 73.6869C114.033 73.7463 113.937 73.7765 113.839 73.7728C113.741 73.7691 113.647 73.7316 113.572 73.6663C113.496 73.6009 113.444 73.5113 113.422 73.4113C113.305 72.9061 113.12 72.4207 112.874 71.9693C111.49 69.4073 108.389 68.0073 105.812 68.782C105.703 68.8149 105.586 68.8028 105.485 68.7481C105.384 68.6935 105.307 68.6004 105.269 68.488C104.664 66.6866 102.902 65.31 100.788 64.9926C99.0481 64.7266 97.0589 65.1186 94.8695 66.1546C94.7888 66.1926 94.6991 66.2044 94.6119 66.1886C94.5247 66.1728 94.444 66.1301 94.38 66.066C93.2878 65.0097 91.8564 64.4232 90.3706 64.4233Z" fill="#093F68"/>
<path d="M47.9755 80.6026H59.3719C59.3719 80.6026 68.4099 66.318 74.9113 68.4693C90.8868 73.78 96.8276 77.014 100.873 79.2446C102.724 80.2666 101.117 84.1493 101.117 84.1493C108.443 80.9526 115.497 77.1122 122.206 72.6693C125.721 70.336 131.315 73.5746 129.771 77.6626C128.227 81.7506 107.387 98.0606 97.9178 100.721C88.4482 103.381 48.4294 100.903 48.4294 100.903L47.9755 80.6026Z" fill="#FFC9B0"/>
<path d="M79.7307 102.438C65.7176 102.438 49.4395 101.449 48.3893 101.383C48.276 101.376 48.1695 101.324 48.0918 101.237C48.014 101.15 47.9708 101.036 47.971 100.917L47.526 80.6026C47.5251 80.5404 47.536 80.4787 47.5582 80.421C47.5803 80.3633 47.6133 80.3108 47.655 80.2666C47.6953 80.2212 47.7442 80.1852 47.7987 80.1611C47.8532 80.137 47.9119 80.1252 47.971 80.1266H59.1316C60.3331 78.26 68.659 65.9073 75.0404 68.026C91.2651 73.4206 97.1702 76.6826 101.073 78.8386C102.617 79.688 102.243 81.9793 101.865 83.3233C108.83 80.1969 115.55 76.5036 121.966 72.2773C124.262 70.756 127.163 71.442 128.841 72.9073C130.345 74.2233 130.843 76.0666 130.176 77.84C128.574 82.04 107.628 98.4806 98.0291 101.173C94.6426 102.13 87.536 102.438 79.7307 102.438ZM48.8476 100.478C53.1063 100.725 89.0089 102.746 97.7977 100.282C106.947 97.7153 127.831 81.4893 129.353 77.504C129.887 76.104 129.495 74.704 128.285 73.6353C126.892 72.4173 124.373 71.806 122.451 73.0753C115.715 77.5288 108.636 81.383 101.286 84.5973C101.205 84.6303 101.116 84.6373 101.03 84.6173C100.945 84.5974 100.867 84.5515 100.806 84.4853C100.745 84.4192 100.704 84.3356 100.688 84.2451C100.672 84.1546 100.682 84.0612 100.717 83.9766C100.717 83.944 102.114 80.4673 100.672 79.674C96.7964 77.532 90.9358 74.298 74.7867 68.9406C68.6813 66.9106 59.8436 80.7333 59.7546 80.8733C59.7139 80.9382 59.6584 80.9913 59.5931 81.028C59.5278 81.0647 59.4548 81.0837 59.3808 81.0833H48.4293L48.8476 100.478Z" fill="#093F68"/>
<path d="M96.2001 86.6833C94.0285 86.6833 91.3051 86.1326 87.8297 85.4326L87.4915 85.3626C82.5949 84.332 77.7514 83.0408 72.98 81.494C72.9242 81.4756 72.8724 81.4459 72.8275 81.4065C72.7827 81.3671 72.7456 81.3188 72.7186 81.2645C72.6915 81.2101 72.6749 81.1506 72.6698 81.0895C72.6646 81.0284 72.671 80.9668 72.6885 80.9083C72.706 80.8498 72.7344 80.7955 72.7719 80.7484C72.8095 80.7014 72.8555 80.6626 72.9074 80.6342C72.9592 80.6058 73.0159 80.5884 73.0742 80.583C73.1325 80.5776 73.1912 80.5843 73.247 80.6027C77.9871 82.1475 82.7993 83.4372 87.665 84.4666L88.0032 84.5366C94.7761 85.904 98.5052 86.66 100.784 83.8833C100.815 83.8236 100.859 83.772 100.912 83.7321C100.965 83.6921 101.026 83.6649 101.09 83.6522C101.154 83.6395 101.22 83.6417 101.283 83.6587C101.346 83.6756 101.405 83.7069 101.455 83.7503C101.505 83.7937 101.546 83.8482 101.574 83.9098C101.602 83.9715 101.617 84.0389 101.617 84.1072C101.618 84.1755 101.604 84.2431 101.577 84.3052C101.55 84.3674 101.51 84.4225 101.46 84.4666C100.125 86.0906 98.4563 86.6833 96.2001 86.6833Z" fill="#093F68"/>
<path d="M124.6 34.3607C124.6 34.3607 118.659 31.094 108.74 36.3907C101.14 40.4507 99.7467 49.8167 99.5064 53.9653C99.2973 50.6567 97.7264 44.0066 89.1424 39.06C77.2564 32.214 67.8091 40.6933 67.8091 40.6933C67.8091 40.6933 67.5154 52.85 82.7121 56.0187C90.7533 57.694 94.9719 57.596 97.1657 57.134C98.6787 61.7633 97.01 71.4 97.01 71.4L101.126 70.9333C102.319 66.612 101.571 58.8 101.246 56.0747C128.418 56.49 124.6 34.3607 124.6 34.3607Z" fill="white"/>
<path d="M97.01 71.8666C96.9489 71.8664 96.8886 71.8531 96.8327 71.8274C96.7769 71.8017 96.7266 71.7642 96.6851 71.7173C96.6373 71.6645 96.602 71.6007 96.5819 71.531C96.5618 71.4614 96.5575 71.3877 96.5694 71.316C96.5694 71.2227 98.1225 62.244 96.8631 57.6473C94.6381 58.03 90.4195 58.0813 82.6231 56.4573C67.235 53.2513 67.3552 40.7913 67.3596 40.6653C67.3609 40.5995 67.3754 40.5347 67.4023 40.4752C67.4291 40.4157 67.4677 40.3628 67.5154 40.32C67.6133 40.236 77.3365 31.7147 89.3515 38.6307C95.8574 42.364 98.4295 47.082 99.413 50.7033C100.165 46.0367 102.337 39.2653 108.535 35.9567C118.544 30.6087 124.555 33.7913 124.805 33.9266C124.865 33.9597 124.917 34.0068 124.957 34.0642C124.997 34.1216 125.024 34.1879 125.036 34.258C125.094 34.608 126.447 42.84 121.249 49.2707C117.32 54.1333 110.76 56.5646 101.74 56.5273C102.11 59.878 102.684 66.934 101.549 71.0453C101.524 71.1335 101.475 71.212 101.408 71.2709C101.34 71.3299 101.258 71.3666 101.171 71.3766L97.0545 71.8433L97.01 71.8666ZM97.1657 56.6487C97.2585 56.6481 97.3491 56.6779 97.4249 56.7339C97.5007 56.79 97.5579 56.8695 97.5885 56.9613C98.9235 61.026 97.8911 68.628 97.5484 70.868L100.775 70.4853C101.847 66.1313 101.073 58.4126 100.806 56.112C100.798 56.0461 100.803 55.9791 100.821 55.9156C100.84 55.852 100.871 55.7933 100.913 55.7433C100.957 55.6956 101.009 55.6574 101.067 55.631C101.125 55.6045 101.188 55.5904 101.251 55.5893C110.249 55.7247 116.75 53.396 120.573 48.6687C125.023 43.1573 124.373 36.0687 124.199 34.6687C123.1 34.202 117.524 32.2046 108.945 36.792C101.487 40.7773 100.169 50.1387 99.9514 53.9793C99.9446 54.0982 99.8947 54.2098 99.812 54.2913C99.7293 54.3729 99.62 54.4182 99.5064 54.418C99.3936 54.4183 99.2849 54.3736 99.2023 54.293C99.1197 54.2125 99.0693 54.102 99.0614 53.984C98.8523 50.6147 97.2503 44.2493 88.9288 39.4567C78.2488 33.3153 69.5179 39.872 68.2541 40.9033C68.2897 42.5553 69.0818 52.6866 82.8011 55.5473C90.9357 57.2413 95.0564 57.0873 97.0812 56.6626C97.1065 56.6605 97.1319 56.6621 97.1568 56.6673L97.1657 56.6487Z" fill="#093F68"/>
<path d="M94.2243 72.5666C94.2243 72.5666 95.2033 69.426 99.324 69.272C103.445 69.118 104.526 71.4186 104.526 71.4186" fill="#725858"/>
<path d="M94.2243 73.0333C94.1773 73.0347 94.1305 73.0268 94.0863 73.01C93.9742 72.9715 93.8813 72.888 93.8279 72.7778C93.7745 72.6675 93.765 72.5396 93.8015 72.422C93.846 72.282 94.9274 68.9687 99.3106 68.8053C103.694 68.642 104.873 71.106 104.927 71.2133C104.978 71.3247 104.986 71.4532 104.948 71.5704C104.909 71.6877 104.828 71.7842 104.722 71.8387C104.616 71.8931 104.493 71.9011 104.381 71.8608C104.269 71.8206 104.177 71.7354 104.126 71.624C104.085 71.5446 103.084 69.5986 99.3418 69.7573C95.5993 69.916 94.6559 72.702 94.647 72.73C94.6149 72.8201 94.5571 72.8975 94.4814 72.9518C94.4058 73.0061 94.316 73.0346 94.2243 73.0333Z" fill="#093F68"/>
<path d="M103.209 52.8593C103.132 52.8595 103.057 52.839 102.99 52.7998C102.924 52.7606 102.868 52.704 102.828 52.6355C102.788 52.5671 102.766 52.489 102.763 52.4088C102.761 52.3287 102.778 52.2492 102.813 52.178C102.866 52.0706 108.153 41.6453 119.442 37.9493C119.499 37.9305 119.558 37.9236 119.616 37.929C119.675 37.9344 119.732 37.9519 119.784 37.9805C119.836 38.0092 119.882 38.0484 119.92 38.0959C119.958 38.1434 119.986 38.1983 120.003 38.2573C120.038 38.3755 120.027 38.5033 119.971 38.6127C119.916 38.7221 119.822 38.8041 119.709 38.8406C108.776 42.4153 103.654 52.5046 103.605 52.6073C103.567 52.6834 103.51 52.7471 103.441 52.7916C103.371 52.836 103.291 52.8595 103.209 52.8593Z" fill="#093F68"/>
<path d="M97.01 54.9546C96.9479 54.9545 96.8865 54.9407 96.8298 54.9142C96.7731 54.8877 96.7223 54.849 96.6807 54.8006C89.5607 46.6293 71.2757 42.0093 71.0932 41.9673C70.9752 41.9388 70.8728 41.8624 70.8085 41.7547C70.7443 41.6471 70.7234 41.5171 70.7506 41.3933C70.7777 41.2695 70.8506 41.1622 70.9533 41.0948C71.0559 41.0274 71.1799 41.0055 71.2979 41.034C74.7682 41.9491 78.1855 43.0725 81.5329 44.3986C88.9511 47.3386 94.2733 50.6193 97.3527 54.1473C97.4321 54.2384 97.4739 54.3588 97.4689 54.4821C97.4639 54.6054 97.4125 54.7216 97.326 54.8053C97.2855 54.8511 97.2367 54.8879 97.1824 54.9136C97.1281 54.9392 97.0695 54.9532 97.01 54.9546Z" fill="#093F68"/>
<rect x="0.5" y="0.5" width="177" height="139" stroke="black" stroke-opacity="0.2"/>
</svg>
