<svg width="20" height="19" xmlns="http://www.w3.org/2000/svg">

 <g>
  <title>background</title>
  <rect fill="none" id="canvas_background" height="402" width="582" y="-1" x="-1"/>
 </g>
 <g>
  <title>Layer 1</title>
  <path id="svg_1" fill-opacity="0.8" fill="black" d="m14.5,0c-1.74,0 -3.41,0.81 -4.5,2.09c-1.09,-1.28 -2.76,-2.09 -4.5,-2.09c-3.08,0 -5.5,2.42 -5.5,5.5c0,3.78 3.4,6.86 8.55,11.54l1.45,1.31l1.45,-1.32c5.15,-4.67 8.55,-7.75 8.55,-11.53c0,-3.08 -2.42,-5.5 -5.5,-5.5zm-4.4,15.55l-0.1,0.1l-0.1,-0.1c-4.76,-4.31 -7.9,-7.16 -7.9,-10.05c0,-2 1.5,-3.5 3.5,-3.5c1.54,0 3.04,0.99 3.57,2.36l1.87,0c0.52,-1.37 2.02,-2.36 3.56,-2.36c2,0 3.5,1.5 3.5,3.5c0,2.89 -3.14,5.74 -7.9,10.05z"/>
  <path d="m9.62963,9.297009c0,-0.05698 -0.052325,-0.12035 -0.284901,-0.2849c-0.335424,-0.237318 -0.547373,-0.430142 -0.8547,-0.626781c-0.107324,-0.068669 -0.214778,-0.188217 -0.2849,-0.22792c-0.20444,-0.115751 -0.373171,-0.225366 -0.5698,-0.284901c-0.054535,-0.016512 -0.16402,-0.085097 -0.34188,-0.11396c-0.056244,-0.009127 -0.234557,-0.159251 -0.34188,-0.22792c-0.307326,-0.196638 -0.395108,-0.236142 -0.51282,-0.2849c-0.166471,-0.068954 -0.339819,-0.177542 -0.51282,-0.22792c-0.225565,-0.065685 -0.5698,-0.11396 -0.91168,-0.22792c-0.17094,-0.05698 -0.290997,-0.061595 -0.51282,-0.11396c-0.124002,-0.029273 -0.153472,-0.140102 -0.22792,-0.17094c-0.052643,-0.021805 -0.057716,0.009127 -0.11396,0c-0.17786,-0.028863 -0.22792,-0.05698 -0.22792,-0.05698c-0.11396,0 -0.17094,-0.05698 -0.22792,-0.05698c-0.05698,0 -0.17094,-0.05698 -0.22792,-0.05698c-0.05698,0 -0.039512,-0.026143 -0.11396,-0.05698c-0.052643,-0.021805 -0.11396,0 -0.17094,0c-0.05698,0 -0.17094,-0.05698 -0.22792,-0.05698c0,0 -0.11396,0 -0.11396,0l-0.05698,-0.05698" id="svg_3" stroke-width="1.5" stroke="#ffffff" fill="none"/>
  <path stroke="#ffffff" d="m3.475788,6.306597c0.05698,0 0.123823,0.042552 0.17094,0.099802c0.074498,0.090519 0.130649,0.114417 0.17094,0.149702c0.040291,0.035285 0.073669,0.064517 0.11396,0.099802c0.040291,0.035285 0.073669,0.064516 0.11396,0.099801c0.040291,0.035285 0.043889,0.101137 0.05698,0.149702c0.029273,0.108596 0.066843,0.142353 0.11396,0.199603c0.074498,0.090519 0.11396,0.149702 0.11396,0.199603c0,0.0499 0.083123,0.084503 0.11396,0.149702c0.021805,0.046102 0.05698,0.149702 0.05698,0.199602c0,0.049901 0.039462,0.109083 0.11396,0.199603c0.047117,0.05725 0.092155,0.053699 0.11396,0.099802c0.061675,0.130397 0.133191,0.165171 0.22792,0.299404c0.042365,0.060031 0.197083,0.134405 0.22792,0.199603c0.021805,0.046101 0.016689,0.114416 0.05698,0.149701c0.040291,0.035285 0.181539,0.13436 0.2849,0.199603c0.065371,0.041263 0.113959,0.049901 0.17094,0.099802c0.05698,0.0499 0.124559,0.084459 0.22792,0.149701c0.065372,0.041263 0.123823,0.092453 0.17094,0.149702c0.074498,0.090519 0.05698,0.199602 0.11396,0.249503c0.05698,0.049901 0.128576,0.089672 0.17094,0.149702c0.094729,0.134233 0.200171,0.179342 0.2849,0.299404c0.09473,0.134233 0.22792,0.299404 0.2849,0.349304c0.05698,0.049901 0.149135,0.153501 0.17094,0.199603c0.030838,0.065199 0.080937,0.104084 0.11396,0.199602c0.059535,0.1722 0.170939,0.199604 0.2849,0.299405c0.05698,0.0499 0.183002,0.135436 0.34188,0.249503c0.124635,0.089482 0.175277,0.130607 0.22792,0.149702c0.148896,0.054012 0.149135,0.1535 0.17094,0.199602c0.030837,0.065199 0.154157,0.166977 0.2849,0.249504c0.206723,0.130485 0.288661,0.143596 0.39886,0.199602c0.177691,0.090306 0.324412,0.222497 0.39886,0.249503c0.052643,0.019096 0.128576,0.139572 0.17094,0.199603c0.09473,0.134233 0.148936,0.214423 0.2849,0.349304c0.084321,0.083651 0.11396,0.149702 0.17094,0.149702c0.05698,0 0.11396,0.049901 0.11396,0.149701c0,0.099802 0.05698,0.199603 0,0.249504c0,0 0,-0.049901 0,-0.099802c0,-0.049901 0,-0.149702 0,-0.349304c0,-0.299404 0,-0.449106 0,-0.548908c0,-0.199602 -0.016844,-0.350033 0,-0.499007c0.028629,-0.253206 0.085255,-0.444504 0.11396,-0.648708c0.013924,-0.099054 0,-0.199603 0,-0.299404c0,-0.049901 -0.022459,-0.250475 0,-0.449106c0.028629,-0.253207 0.05698,-0.299405 0.05698,-0.449106c0,-0.099802 0.028117,-0.143642 0.056979,-0.299404c0.018254,-0.098513 0,-0.249504 0,-0.349305c0,-0.149701 0.055933,-0.334933 0.11396,-0.598807c0.032326,-0.147001 0.085373,-0.396109 0.11396,-0.698609c0.018799,-0.198923 0,-0.399206 0,-0.598808c0,-0.099802 0,-0.199603 0,-0.249503c0,-0.0499 -0.027848,-0.101297 0,-0.299404c0.028706,-0.204205 0.023956,-0.403488 0.05698,-0.499007c0.059534,-0.172199 0.142234,-0.244902 0.170939,-0.449106c0.006962,-0.049527 -0.007927,0.098513 -0.05698,0.349304c-0.136049,0.695571 -0.282399,1.532154 -0.39886,1.946126c-0.109895,0.390631 -0.085096,0.642649 -0.113959,0.79841c-0.036509,0.197026 -0.040468,0.401347 -0.05698,0.449106c-0.059535,0.1722 -0.118298,0.180506 -0.17094,0.199603c-0.074449,0.027006 -0.213999,-0.056615 -0.626781,-0.69861c-0.5514,-0.857586 -1.36752,-1.896225 -2.22222,-2.944139c-0.2849,-0.349305 -0.38365,-0.447295 -0.39886,-0.399205c-0.088688,0.28041 -0.312679,1.100578 -0.22792,2.095827c0.085707,1.006384 0.577912,1.72831 0.96866,2.145728c0.102176,0.10915 0.215644,0.169388 0.2849,0c0.193038,-0.472142 0.05698,-0.948113 0.05698,-1.497019c0,-0.299405 -0.134846,-0.497885 -0.11396,-0.349304c0.05741,0.408408 0.274821,0.888632 0.68376,1.347317c0.247956,0.27812 0.45584,0.499007 0.45584,0.299405c0,-0.149702 -0.237334,-0.978413 -0.91168,-1.746523c-0.3202,-0.364723 -0.619337,-0.542484 -0.5698,-0.399205c0.059535,0.172199 0.455841,0.648707 0.854701,0.998013c0.22792,0.199603 0.366082,0.26805 0.51282,0.099802c0.278845,-0.31972 0.346573,-0.956489 0.22792,-1.596821c-0.086588,-0.467286 -0.62005,-1.051546 -0.79772,-1.297417c-0.109861,-0.152034 -0.153505,-0.096774 -0.11396,0.099802c0.115715,0.575214 0.45584,0.79841 0.683761,0.998013c0.05698,0.049901 -0.012691,-0.036128 -0.227921,-0.199603c-0.426131,-0.323664 -0.783836,-0.671975 -1.31054,-0.898212c-0.389607,-0.167349 -0.833637,-0.377392 -1.253561,-0.598808c-0.218307,-0.115109 -0.46031,-0.239017 -0.62678,-0.299404c-0.117712,-0.0427 -0.277108,-0.206928 -0.39886,-0.299404c-0.21523,-0.163475 -0.289237,-0.180506 -0.34188,-0.199603c-0.074448,-0.027006 -0.162549,-0.108439 -0.22792,-0.149702c-0.103362,-0.065243 -0.17094,-0.049901 -0.22792,-0.049901c-0.05698,0 -0.175277,-0.019096 -0.22792,0c-0.074448,0.027006 -0.096492,0.122696 -0.17094,0.149702c-0.052643,0.019096 -0.11396,0.049901 -0.17094,0.099801c-0.05698,0.049901 -0.05698,0.099802 -0.05698,0.099802c-0.05698,0.049901 -0.118297,0.030805 -0.17094,0.049901c-0.074448,0.027006 -0.11396,0.099801 -0.17094,0.099801c-0.05698,0 -0.05698,0 -0.11396,0.049901c-0.05698,0.049901 -0.05698,0.099802 -0.05698,0.149702c0,0 0,0.049901 0,0.149702c0,0.0499 0,0.099801 0,0.249503c0,0.099802 0,0.149702 0,0.249503c0,0.049901 0,0.049901 0,0.099802c0,0.049901 0.05698,0.049901 0.05698,0.049901c0.05698,0.0499 0.073669,0.064516 0.11396,0.099801c0.080582,0.07057 0.168671,0.004191 0.2849,0.049901c0.279918,0.110084 0.336343,0.110989 0.45584,0.149702c0.220342,0.071383 0.656081,0.148396 1.36752,0.249503c0.618687,0.087925 1.311728,0.092285 2.165241,0.199603c0.741848,0.093277 0.969395,0.191609 1.02564,0.199603c0.17786,0.025277 0.343162,0.131411 0.51282,0.149702c0.233175,0.025139 0.510759,0.105584 0.683761,0.149702c0.225565,0.057524 0.45584,0.149702 0.626781,0.149702c0.170939,0 0.55596,0.049248 0.91168,0.099802c0.39371,0.055953 0.8547,0.099801 1.1396,0.099801c0.05698,0 0.17094,0 0.284901,0c0.056979,0 0.170939,-0.049901 0.2849,-0.049901c0.05698,0 0.059721,0.10143 -0.05698,0.249503c-0.278432,0.353282 -0.744328,0.81389 -0.91168,1.097814c-0.190274,0.322812 -0.227921,0.449106 -0.284901,0.548908c0,0 -0.010004,-0.006882 0.17094,-0.199602c0.486873,-0.518558 0.920531,-0.842018 1.196581,-1.147716c0.176722,-0.195702 0.337265,-0.294064 0.2849,-0.099802c-0.029273,0.108597 -0.277015,0.600738 -0.45584,1.147716c-0.163746,0.500853 -0.201352,0.853132 -0.2849,1.147715c-0.043434,0.153147 -0.188218,0.237993 -0.227921,0.299404c-0.115752,0.17904 0.004337,0.2187 0.05698,0.199603c0.37224,-0.135031 0.397335,-0.33784 0.34188,-0.349304c-0.124002,-0.025636 -0.113959,0.149701 -0.2849,0.299404c-0.11396,0.099802 -0.154652,0.160264 -0.284901,0.299404c-0.051087,0.054574 -0.170939,0.199603 -0.22792,0.249504c-0.05698,0.0499 -0.11396,0.099801 -0.227921,0.199602c-0.170939,0.149702 -0.2849,0.299404 -0.512819,0.499007c-0.05698,0.049901 -0.076211,0.115271 -0.17094,0.249503c-0.042364,0.060031 -0.197083,0.084503 -0.227921,0.149702c-0.021806,0.046102 0,0.099802 -0.05698,0.149702c-0.056979,0.0499 0.219417,0.039418 0.455841,-0.099802c0.551431,-0.324713 1.117785,-0.555238 1.53846,-0.848311c0.126123,-0.087868 0.306098,-0.21882 0.51282,-0.349304c0.130743,-0.082527 0.284901,-0.249504 0.45584,-0.399205c0.17094,-0.149702 0.39886,-0.299405 0.5698,-0.499007c0.17094,-0.199603 0.34188,-0.399205 0.39886,-0.499007c0.05698,-0.099802 0.083123,-0.184305 0.11396,-0.249503c0.021806,-0.046102 0.083123,-0.134404 0.11396,-0.199603c0.021806,-0.046102 -0.006962,-0.050275 0,-0.099802c0.028706,-0.204204 0.305468,-0.605904 0.39886,-0.898211c0.082682,-0.258784 0.215945,-0.45302 0.2849,-0.598808c0.048759,-0.103088 0.140103,-0.184305 0.17094,-0.249503c0.021805,-0.046102 -0.006962,-0.100175 0,-0.149702c0.028706,-0.204204 0.11396,-0.349305 0.11396,-0.499007c0,-0.199603 0.028275,-0.195001 0.05698,-0.399205c0.027848,-0.198107 0.11396,-0.449106 0.11396,-0.648709c0,-0.049901 0,-0.149702 0,-0.299404c0,-0.099802 0,-0.199603 0,-0.299404c0,-0.149702 0,-0.199603 0,-0.249503c0,-0.0499 -0.035174,-0.1036 -0.05698,-0.149702c-0.030837,-0.065198 -0.239982,-0.135436 -0.398861,-0.249503c-0.062317,-0.044741 -0.162548,-0.108439 -0.22792,-0.149702c-0.206723,-0.130486 -0.277981,-0.174326 -0.45584,-0.199603c-0.056244,-0.007993 -0.192985,-0.09569 -0.341881,-0.149702c-0.105285,-0.038192 -0.22792,0 -0.34188,0c-0.22792,0 -0.39886,0 -0.45584,0c-0.05698,0 -0.05698,0 -0.11396,0c-0.05698,0 -0.113959,-0.049901 -0.170939,-0.049901c-0.11396,0 -0.17094,0 -0.284901,0c-0.113959,0 -0.170939,0 -0.22792,0c-0.05698,0 -0.175278,-0.019096 -0.227921,0c-0.074448,0.027006 -0.099305,0.109334 -0.39886,0.449106c-0.271972,0.308486 -0.67546,0.777249 -0.91168,1.247516c-0.145109,0.288883 -0.247588,0.557738 -0.34188,0.79841c-0.041349,0.105542 -0.05698,0.199603 -0.05698,0.299404c0,0.049901 -0.040291,0.164318 0,0.199603c0.080582,0.07057 0.364296,-0.023177 0.96866,-0.199603c0.604364,-0.176425 1.082621,-0.449106 1.4245,-0.499006c0,0 0.061317,-0.019096 0.11396,0c0.148895,0.054012 0.132564,0.409518 -0.341881,1.047914c-0.603501,0.812049 -1.253559,1.696623 -1.59544,2.145728c-0.11396,0.149701 -0.087584,-0.157376 0.056979,-0.548908c0.472035,-1.278442 1.058445,-2.612628 1.367521,-3.542947c0.136005,-0.409376 0.170939,-0.449106 0.22792,-0.449106c0,0 0.113618,0.291196 0.17094,0.74851c0.062175,0.496027 0.050018,0.898585 0.05698,0.948112c0.028706,0.204204 0.113959,0.249503 0.170939,0.249503c0,0 0.195471,0.036881 0.51282,-0.149702c0.502888,-0.295668 0.918922,-0.495309 1.082621,-0.74851c0.028073,-0.043423 0.112436,-0.260968 0.05698,-0.249503c-0.248006,0.051273 -0.849068,0.555698 -1.709401,1.097815c-0.962437,0.606454 -1.214231,0.78074 -1.937321,0.998014c-0.274816,0.082577 -0.466437,0.165043 -0.569799,0.099801c-0.130743,-0.082526 -0.496218,-0.361 -0.91168,-0.79841c-0.438778,-0.461956 -0.683762,-0.79841 -0.854701,-1.097815c-0.113959,-0.199603 -0.28095,-0.309775 -0.39886,-0.698609c-0.014625,-0.048229 -0.05698,-0.0499 -0.05698,-0.0499c0,0.199603 0.242943,0.592095 0.5698,0.79841c0.310084,0.195728 0.669921,0.298751 1.02564,0.349304c0.112489,0.015986 0.232258,0.019096 0.2849,0c0.074449,-0.027006 0.05698,-0.099801 0.05698,-0.249503c0,-0.249503 0.087221,-0.414399 0,-0.598808c-0.061674,-0.130396 -0.0639,-0.174326 0.11396,-0.199603c0.056245,-0.007993 0,0 -0.5698,0c-0.74074,0 -1.31054,0 -1.76638,0c-0.17094,0 -0.22792,0 -0.2849,0c-0.17094,0 -0.286009,-0.080132 -0.512821,-0.099801c-0.289128,-0.025072 -0.574181,-0.136301 -0.79772,-0.199603c-0.291963,-0.082678 -0.39211,-0.109296 -0.5698,-0.199603c-0.110199,-0.056006 -0.276508,-0.15834 -0.34188,-0.199603c-0.103361,-0.065243 -0.11396,-0.099801 -0.22792,-0.199602c-0.05698,-0.049901 -0.17094,-0.149702 -0.227921,-0.199603l-0.05698,-0.0499" id="svg_6" stroke-width="1.5" fill="none"/>
  <path d="m11.73789,11.80413c0,0 0,0.05698 0,0.17094c0,0.056979 -0.120873,0.164026 0,0.2849c0.040291,0.040291 0.05698,0.05698 0.05698,0.11396c0,0.113959 0,0.170939 0,0.22792c0,0 0,0.11396 0,0.284901c0,0.113959 0.043611,0.179614 0,0.2849c-0.030837,0.074449 -0.05698,0.05698 -0.11396,0.05698c-0.05698,0 -0.05698,0 -0.113959,0c0,0 -0.05698,0 -0.11396,0c0,0 -0.05698,0.05698 -0.11396,0.11396c-0.05698,0.05698 -0.061317,0.035174 -0.11396,0.05698c-0.074447,0.030837 -0.113959,0.113959 -0.113959,0.113959c0,0.05698 -0.026143,0.096492 -0.05698,0.17094c-0.021806,0.052643 -0.066843,0.162549 -0.11396,0.22792c-0.074499,0.103361 -0.11396,0.17094 -0.11396,0.17094c-0.05698,0 -0.073669,0.016689 -0.11396,0.05698c-0.040291,0.040291 -0.113959,0.05698 -0.113959,0.05698l0,0" id="svg_7" fill-opacity="0.8" stroke-opacity="null" stroke-width="null" stroke="null" fill="none"/>
  <path d="m8.091169,11.177349c0,0.05698 -0.027707,0.160897 -0.05698,0.284901c-0.039274,0.166367 0,0.22792 0,0.2849c0,0.05698 -0.05698,0.227921 -0.05698,0.2849c0,0 0,0.05698 0,0.11396c0,0.05698 0,0.05698 0,0.17094c0,0.05698 0.026143,0.096493 0.05698,0.170939c0.043611,0.105286 0,0.17094 0.05698,0.227921c0.05698,0.05698 0.05698,0.17094 0.11396,0.227921c0.05698,0.056979 0.11396,0.113959 0.11396,0.113959c0.056979,0 0.039511,0.083123 0.113959,0.11396c0.105286,0.043611 0.17094,0 0.227921,0.05698c0.05698,0.05698 0.01337,0.122635 0.05698,0.22792c0.030837,0.074449 0.05698,0.17094 0.113959,0.227921c0.05698,0.05698 0.073669,0.073669 0.11396,0.11396c0.080582,0.080582 0.118298,0.035175 0.17094,0.05698c0.074448,0.030837 0.11396,0.113959 0.170939,0.170939c0.05698,0.05698 0.05698,0.11396 0.11396,0.17094c0.05698,0.05698 0.076211,0.131624 0.17094,0.2849c0.042364,0.068547 0.096492,0.140103 0.17094,0.17094c0.052642,0.021805 0.096491,0.083123 0.170939,0.11396c0.052643,0.021806 0.096493,0.026142 0.17094,0.056979c0.052643,0.021805 0.11396,0 0.17094,0c0.056979,0 0.090358,0.05698 0.170939,0.05698c0.080582,0 0.232067,-0.10723 0.51282,-0.2849c0.173603,-0.109861 0.36536,-0.112168 0.5698,-0.22792c0.070123,-0.039702 0.162548,-0.180803 0.22792,-0.227921c0.103361,-0.074499 0.2849,-0.113961 0.39886,-0.227921c0.05698,-0.056979 0.122635,-0.070349 0.227921,-0.113959c0.223345,-0.092512 0.227921,-0.17094 0.34188,-0.284901c0.05698,-0.05698 0.05698,-0.113959 0.05698,-0.170939c0,0 -0.03775,-0.074644 0.05698,-0.227921c0.042364,-0.068547 0.128576,-0.102393 0.17094,-0.170939c0.09473,-0.153275 0.123822,-0.219529 0.170939,-0.284901c0.074499,-0.103361 0.11396,-0.17094 0.11396,-0.22792c0,-0.11396 0.087777,-0.28795 0.11396,-0.398861c0.029273,-0.124002 0.066843,-0.276508 0.11396,-0.34188c0.074498,-0.103361 0.113959,-0.2849 0.22792,-0.39886l0.05698,-0.11396l0.05698,-0.05698l0.05698,-0.113959" id="svg_8" stroke-width="null" fill="none"/>
  <path stroke="#ffffff" d="m6.283621,10.163188c0.055344,0 0.110688,0.055913 0.166033,0.111825c0.055344,0.055913 0.089509,0.116081 0.110689,0.167738c0.029952,0.073053 0.059557,0.090427 0.110688,0.111824c0.072311,0.030259 0.110688,0.111825 0.110688,0.167738c0,0.055913 0,0.111825 0,0.279562c0,0.055913 0.02731,0.21686 0.055344,0.391388c0.01773,0.11038 0.025392,0.150596 0.055344,0.22365c0.021179,0.051657 0.055345,0.22365 0.110689,0.279562c0.055344,0.055913 0.038377,0.197997 0.110688,0.167738c0.051132,-0.021397 0.04559,-0.083101 0.166033,-0.111825c0.107728,-0.025693 0.167514,-0.012846 0.221377,0c0.120443,0.028725 0.221377,0.111825 0.276721,0.111825c0.055344,0 0.059557,0.034515 0.110689,0.055913c0.07231,0.030259 0.110688,0.055913 0.110688,0.055913c0.110689,0.055913 0.161473,0.077544 0.221377,0.22365c0.042359,0.103313 0.038377,0.193391 0.110689,0.22365c0.051132,0.021397 0.102538,0.009678 0.166033,0.055913c0.100394,0.073102 0.166032,0.055913 0.221376,0.111825c0.055344,0.055912 0.156278,0.0831 0.276721,0.111824c0.053864,0.012846 0.149066,0.025653 0.221377,0.055913c0.051132,0.021397 0.038377,0.025653 0.110689,0.055913c0.051132,0.021397 0.114901,-0.021397 0.166032,0c0.144622,0.06052 0.166033,0.167738 0.166033,0.167738c0.055344,0.055913 0.110689,0.111824 0.166033,0.167737c0.055344,0.055913 0.114901,0.034515 0.166032,0.055913c0.072311,0.030259 0.166033,0.055913 0.166033,0.055913c0.055344,0.055913 0.110689,0.055913 0.221377,0.055913c0.055343,0 0.102537,0.009678 0.166032,0.055913c0.200789,0.146206 0.370443,0.137478 0.442754,0.167737c0.051132,0.021396 0.084575,-0.006616 0.110689,-0.055912c0.094158,-0.177742 0.432386,-0.291126 0.553443,-0.391388c0.154317,-0.127809 0.200197,-0.171993 0.221376,-0.22365c0.029952,-0.073054 0.110689,-0.167738 0.166033,-0.22365c0.055344,-0.055912 0.111403,-0.102869 0.166032,-0.111824c0.172754,-0.028322 0.276722,-0.167738 0.38741,-0.279563c0.110688,-0.111825 0.221376,-0.167737 0.276721,-0.22365c0.055344,-0.055913 0.221377,-0.22365 0.276721,-0.279563c0.055344,-0.055913 0.221377,-0.111824 0.276722,-0.167737c0.055344,-0.055913 0.040069,-0.068366 0.221376,-0.279563c0.051282,-0.059735 0.110689,-0.111824 0.110689,-0.167737c0,-0.111825 -0.02247,-0.195936 0.110689,-0.4473c0.036931,-0.069716 0.034165,-0.116081 0.055344,-0.167738c0.029952,-0.073054 0.055344,-0.22365 0.110689,-0.335475c0.055343,-0.111825 0.055343,-0.167738 0.055343,-0.22365c0,-0.055913 0.171756,-0.1625 0.221377,-0.22365c0.126511,-0.155902 0.11069,-0.279563 0.166033,-0.4473c0.055344,-0.167738 0.055343,-0.391388 0.055343,-0.559125c0,-0.111825 0,-0.335475 0,-0.391387c0,-0.055913 0,-0.167738 -0.055343,-0.22365c-0.055344,-0.055913 -0.187346,-0.188538 -0.332066,-0.391387c-0.228822,-0.320733 -0.536646,-0.518421 -0.885508,-0.8946c-0.189197,-0.204012 -0.346656,-0.551604 -0.66413,-0.782775c-0.200789,-0.146206 -0.38741,-0.22365 -0.498098,-0.22365c-0.221377,0 -0.452479,-0.021972 -0.719476,0.111825c-0.289098,0.144872 -0.865426,0.435995 -1.328261,0.726862c-0.367034,0.230661 -0.84732,0.46617 -0.996196,0.559125c-0.066579,0.041571 -0.110688,0.111825 -0.110688,0.111825c-0.110689,0 -0.388488,0.022038 -0.608787,0c-0.280828,-0.028093 -0.549336,-0.083732 -0.830164,-0.111825c-0.2203,-0.022038 -0.442754,0 -0.608786,0c-0.276721,0 -0.553443,0 -0.830163,0c-0.553443,0 -0.830164,0 -0.996196,0c-0.110689,0 -0.276721,0 -0.332066,0c-0.055344,0 -0.174848,0.02177 -0.332065,-0.055913c-0.179255,-0.088571 -0.225819,-0.129199 -0.38741,-0.167737c-0.120443,-0.028725 -0.177748,-0.095841 -0.332065,-0.22365c-0.060528,-0.050131 -0.123015,-0.096393 -0.332065,-0.279563c-0.059128,-0.051808 -0.120983,-0.094634 -0.221377,-0.167737c-0.063495,-0.046235 -0.038378,-0.137478 -0.110688,-0.167737c-0.051132,-0.021397 -0.055344,-0.111825 -0.055344,-0.167738c0,-0.111825 -0.006536,-0.339545 0.166033,-0.615037c0.106707,-0.17035 0.166033,-0.22365 0.166033,-0.22365c0.055344,0 0.174458,0.013119 0.276721,0.055913c0.072311,0.030259 0.11513,0.017374 0.276721,0.055912c0.120443,0.028725 0.166033,0.055913 0.221377,0.111825c0.055344,0.055913 0.114901,0.021397 0.166033,0c0.144621,-0.06052 0.187345,-0.24445 0.332065,-0.4473c0.045765,-0.064147 0.055344,-0.111825 0.110689,-0.167737l0.055344,-0.055913l0,-0.055913l0,-0.055913" id="svg_9" fill-opacity="null" stroke-opacity="null" stroke-width="1.5" fill="none"/>
  <path stroke="#ffffff" d="m8.91777,10.259267c0.053379,0 0.213513,0.054637 0.266892,0.109274c0.053379,0.054637 0.053379,0.163912 0.053379,0.218548c0,0 0.053379,0 0.160136,0c0.053379,0 0.160135,0 0.213513,0c0.053379,0 0.109613,0.025106 0.213514,0c0.116165,-0.028069 0.213513,-0.163911 0.373649,-0.327822c0.106757,-0.109274 0.164423,-0.293751 0.373649,-0.382459c0.049315,-0.020909 0.106757,0 0.160136,0c0.106756,0 0.214202,0.045885 0.266892,0.054637c0.166618,0.027676 0.270956,0.088365 0.32027,0.109273c0.069743,0.029569 0.127185,0.113433 0.106757,0.163912c-0.057777,0.142774 -0.371689,0.281951 -0.587163,0.327823c-0.317885,0.067675 -0.587162,0.218548 -0.800676,0.218548c-0.106756,0 -0.213513,0 -0.266892,0c-0.053379,0 -0.116686,0.016799 -0.213514,-0.054637c-0.06124,-0.04518 -0.057442,-0.088366 -0.106756,-0.109274c-0.069742,-0.029569 -0.11082,-0.033727 -0.160136,-0.054636c-0.139485,-0.059139 -0.19715,-0.134342 -0.266892,-0.163912c-0.049315,-0.020909 -0.160136,-0.054637 -0.213514,-0.054637c-0.053379,0 -0.150727,-0.026568 -0.266892,-0.054637c-0.051951,-0.012553 -0.079039,0.085135 0.053379,0.273186c0.139579,0.198222 0.224812,0.312202 0.373649,0.437096c0.058379,0.048988 0.106756,0.054637 0.160135,0.054637c0.160136,0 0.214942,0.012553 0.266893,0c0.232329,-0.056139 0.437225,-0.204495 0.800676,-0.491733c0.329986,-0.260789 0.533785,-0.38246 0.587163,-0.437097c0.160135,-0.163911 0.205652,-0.282642 0.266892,-0.327822c0.096828,-0.071436 0.161514,-0.037133 0.266892,-0.054637c0.166618,-0.027676 0.266893,-0.054637 0.480406,-0.054637c0.266893,0 0.702046,-0.067455 0.800677,-0.109273c0.069742,-0.029569 0.160135,-0.054637 0.106756,0c-0.106756,0.109273 -0.215048,0.341434 -0.747298,0.710281c-0.395345,0.273973 -0.577756,0.299753 -0.693919,0.327822c-0.103901,0.025106 -0.214203,0.008751 -0.266893,0c-0.166618,-0.027675 -0.160136,-0.218548 -0.160136,-0.437096c0,-0.109274 -0.033061,-0.740685 0.266893,-0.655644c0.102883,0.029169 -0.088733,0.44071 -0.160136,0.764919c-0.085459,0.388027 -0.14377,0.630577 -0.213513,0.601008c-0.197262,-0.083635 -0.030397,-0.483521 -0.213514,-1.256652c-0.128256,-0.541505 -0.250528,-0.789988 -0.32027,-0.819557c-0.049315,-0.020909 -0.241372,0.072118 -0.427027,0.327823c-0.473329,0.651921 -0.827164,1.142339 -0.854055,1.365927c-0.006522,0.054227 0.085847,-0.010231 0,-0.38246c-0.109692,-0.475616 -0.260371,-0.600597 -0.266893,-0.54637c-0.053781,0.447173 -0.106756,0.874193 -0.106756,1.092741c0,0.163912 0.031269,0.327822 0.106756,0.327822c0.150977,0 0.15998,-0.64938 0.213514,-1.365926c0.024421,-0.326868 -0.009675,-0.436873 0,-0.218549c0.026717,0.602866 0.126062,1.109428 0.266892,1.365927c0.130757,0.238153 0.19715,0.302754 0.266893,0.273185c0.197261,-0.083635 0,-0.601007 0,-0.92883c0,-0.218548 0,-0.163911 0,0.109274c0,0.218549 0.053379,0.327823 0.053379,0.163912c0,-0.109274 0,-0.601008 0,-0.819556c0,-0.054637 0,0.163911 0,0.819556c0,0.491734 -0.042751,0.823083 0,1.092741c0.027038,0.170547 0.129289,0.108832 0.106756,-0.491734c-0.026709,-0.711855 0.106757,-1.256652 -0.053379,-1.256652c-0.106757,0 0.021827,0.384911 -0.053378,0.983467c-0.082831,0.659259 -0.106757,1.202015 -0.106757,1.529838c0,0.218548 0,0.327822 0.053379,0.327822c0.053379,0 0.032728,-0.277688 -0.106757,-0.218549c-0.098631,0.041817 -0.053379,0.218549 -0.053379,0.273186c0,0.218548 0,0.382459 0,0.491734c0,0.054637 0,0.109274 0,0.218548c0,0.054637 0,0.163912 0,0.218549c0,0.054637 0,0.109274 0,0.218548c0,0.054637 0.024491,0.092524 0.053379,0.163912c0.040854,0.100956 0.032951,0.21439 0.053379,0.163912c0.028888,-0.071387 0.131247,-0.147162 0.160135,-0.218549c0.040854,-0.100956 0,-0.163912 0,-0.273185c0,-0.054637 0,-0.109274 0,-0.163912c0,-0.054637 0,-0.109274 0,-0.163912c0,-0.163911 0.053379,-0.218548 0.053379,-0.273185c0,-0.054637 0.063308,-0.126073 0.160136,-0.054637c0.06124,0.04518 0.160136,0.273186 0.213514,0.437096l0.053378,0.109274" id="svg_10" fill-opacity="null" stroke-opacity="null" stroke-width="1.5" fill="none"/>
  <path d="m10.14245,12.65883c0.11396,0.05698 0.092155,0.118298 0.11396,0.17094c0.030837,0.074448 0.083122,0.039512 0.113959,0.11396c0.021805,0.052642 0.05698,0.170939 0.11396,0.22792c0.05698,0.05698 0.083163,0.117009 0.05698,0.227921c-0.029273,0.124002 -0.092155,0.232257 -0.11396,0.2849c-0.030837,0.074449 -0.05698,0.11396 -0.05698,0.17094c0,0.056979 0,0.113959 0,0.170939c0,0.05698 -0.05698,0.11396 -0.05698,0.17094c0,0.05698 0.021806,0.118298 0,0.17094c-0.030837,0.074447 -0.056979,0.056979 -0.056979,0.113959l0,0.05698l-0.05698,0.05698l-0.05698,-0.05698" id="svg_11" fill-opacity="null" stroke-opacity="null" stroke-width="1.5" stroke="#ffffff" fill="none"/>
 </g>
</svg>